<svg width="188" height="35" viewBox="0 0 188 35" fill="none" xmlns="http://www.w3.org/2000/svg">
<g clip-path="url(#clip0_22102_4202)">
<path d="M34.8879 17.4371C34.8879 27.0673 27.0809 34.8741 17.4507 34.8741C7.82052 34.8741 0.0136719 27.0673 0.0136719 17.4371C0.0136719 7.80683 7.82052 0 17.4507 0C27.0809 0 34.8879 7.80683 34.8879 17.4371Z" fill="#22253B"/>
<path d="M21.4009 8.68628H13.2122C10.5471 8.68628 8.37891 10.8544 8.37891 13.5195V21.7084C8.37891 24.3734 10.5471 26.5416 13.2122 26.5416H21.4011C24.0659 26.5416 26.2341 24.3734 26.2341 21.7084V13.5195C26.2341 10.8544 24.0659 8.68628 21.4009 8.68628ZM17.3065 22.4961C14.6145 22.4961 12.4244 20.306 12.4244 17.6139C12.4244 14.9218 14.6145 12.7317 17.3065 12.7317C19.9986 12.7317 22.1888 14.9218 22.1888 17.6139C22.1888 20.306 19.9986 22.4961 17.3065 22.4961ZM22.3054 13.8831C21.5099 13.8831 20.8628 13.236 20.8628 12.4405C20.8628 11.6449 21.5099 10.9977 22.3054 10.9977C23.101 10.9977 23.7481 11.6449 23.7481 12.4405C23.7481 13.236 23.101 13.8831 22.3054 13.8831Z" fill="white"/>
<path d="M17.3061 13.7788C15.1913 13.7788 13.4707 15.4993 13.4707 17.6142C13.4707 19.7289 15.1913 21.4496 17.3061 21.4496C19.421 21.4496 21.1414 19.7289 21.1414 17.6142C21.1414 15.4993 19.421 13.7788 17.3061 13.7788Z" fill="white"/>
<path d="M22.306 12.0444C22.0878 12.0444 21.9102 12.2221 21.9102 12.4403C21.9102 12.6585 22.0878 12.8362 22.306 12.8362C22.5243 12.8362 22.7021 12.6587 22.7021 12.4403C22.7021 12.2219 22.5243 12.0444 22.306 12.0444Z" fill="white"/>
</g>
<g clip-path="url(#clip1_22102_4202)">
<path d="M85.8741 17.4371C85.8741 27.0673 78.0673 34.8741 68.4371 34.8741C58.8068 34.8741 51 27.0673 51 17.4371C51 7.80683 58.8068 0 68.4371 0C78.0673 0 85.8741 7.80683 85.8741 17.4371Z" fill="#22253B"/>
<path fill-rule="evenodd" clip-rule="evenodd" d="M67.8501 22.9579H68.9654C68.9654 22.9579 69.3023 22.9211 69.4743 22.736C69.6326 22.5663 69.6276 22.2475 69.6276 22.2475C69.6276 22.2475 69.6058 20.7549 70.3004 20.5351C70.9851 20.3186 71.8644 21.9777 72.7964 22.6156C73.501 23.0983 74.0364 22.9925 74.0364 22.9925L76.5285 22.9579C76.5285 22.9579 77.8319 22.8779 77.2138 21.8556C77.1633 21.7719 76.8539 21.0995 75.3612 19.7175C73.7987 18.2712 74.0079 18.5051 75.89 16.0032C77.0364 14.4795 77.4946 13.5493 77.3514 13.1509C77.2148 12.7714 76.3718 12.8717 76.3718 12.8717L73.5662 12.8891C73.5662 12.8891 73.3582 12.8609 73.2039 12.9528C73.0532 13.043 72.9561 13.2532 72.9561 13.2532C72.9561 13.2532 72.5121 14.4323 71.9198 15.435C70.6705 17.5509 70.1709 17.6626 69.9668 17.5312C69.4918 17.225 69.6104 16.3011 69.6104 15.6447C69.6104 13.5943 69.9222 12.7393 69.0032 12.518C68.6982 12.4445 68.4737 12.396 67.6938 12.3882C66.6927 12.3778 65.8453 12.3912 65.3655 12.6256C65.0464 12.7815 64.8001 13.1289 64.9501 13.1489C65.1355 13.1736 65.5555 13.2618 65.7782 13.5642C66.0657 13.9543 66.0556 14.8305 66.0556 14.8305C66.0556 14.8305 66.2207 17.2442 65.6698 17.5441C65.2916 17.7497 64.7728 17.3298 63.6589 15.4103C63.0882 14.427 62.6573 13.3401 62.6573 13.3401C62.6573 13.3401 62.5743 13.137 62.4261 13.0284C62.2462 12.8967 61.9949 12.8548 61.9949 12.8548L59.3288 12.8722C59.3288 12.8722 58.9285 12.8833 58.7816 13.0569C58.6509 13.2113 58.7712 13.5306 58.7712 13.5306C58.7712 13.5306 60.8585 18.401 63.222 20.8555C65.3891 23.1058 67.8501 22.9579 67.8501 22.9579Z" fill="white"/>
</g>
<g clip-path="url(#clip2_22102_4202)">
<path d="M136.888 17.4371C136.888 27.0673 129.081 34.8741 119.451 34.8741C109.821 34.8741 102.014 27.0673 102.014 17.4371C102.014 7.80683 109.821 0 119.451 0C129.081 0 136.888 7.80683 136.888 17.4371Z" fill="#22253B"/>
<path d="M121.219 12.9132H123.245V9.97339H120.864V9.98399C117.978 10.0844 117.386 11.6778 117.334 13.3514H117.328V14.8194H115.363V17.6985H117.328V25.4158H120.29V17.6985H122.716L123.184 14.8194H120.291V13.9325C120.291 13.3669 120.674 12.9132 121.219 12.9132Z" fill="white"/>
</g>
<g clip-path="url(#clip3_22102_4202)">
<path d="M187.94 17.4632C187.94 27.1078 180.121 34.9262 170.477 34.9262C160.832 34.9262 153.014 27.1078 153.014 17.4632C153.014 7.81852 160.832 0 170.477 0C180.121 0 187.94 7.81852 187.94 17.4632Z" fill="#22253B"/>
<path d="M179.474 11.6698C178.764 10.8264 177.455 10.4824 174.953 10.4824H165.873C163.314 10.4824 161.982 10.8486 161.275 11.7465C160.586 12.6219 160.586 13.9118 160.586 15.697V19.0996C160.586 22.5583 161.404 24.3142 165.873 24.3142H174.953C177.122 24.3142 178.325 24.0107 179.102 23.2664C179.9 22.5031 180.24 21.2569 180.24 19.0996V15.697C180.24 13.8144 180.187 12.5169 179.474 11.6698ZM173.204 17.8681L169.08 20.0231C168.988 20.0713 168.887 20.0952 168.787 20.0952C168.673 20.0952 168.559 20.0646 168.458 20.0035C168.269 19.8886 168.153 19.683 168.153 19.4612V15.165C168.153 14.9436 168.268 14.7382 168.458 14.6232C168.647 14.5081 168.883 14.5003 169.079 14.6024L173.202 16.7435C173.412 16.8524 173.544 17.069 173.544 17.3053C173.545 17.5418 173.413 17.7587 173.204 17.8681Z" fill="white"/>
</g>
<defs>
<clipPath id="clip0_22102_4202">
<rect width="35" height="35" fill="white"/>
</clipPath>
<clipPath id="clip1_22102_4202">
<rect width="35" height="35" fill="white" transform="translate(51)"/>
</clipPath>
<clipPath id="clip2_22102_4202">
<rect width="35" height="35" fill="white" transform="translate(102)"/>
</clipPath>
<clipPath id="clip3_22102_4202">
<rect width="35" height="35" fill="white" transform="translate(153)"/>
</clipPath>
</defs>
</svg>
